<?xml version="1.0" encoding="UTF-8"?>
<svg id="Logo" xmlns="http://www.w3.org/2000/svg" viewBox="0 0 182.83 167.74">
  <defs>
    <style>
      .cls-1 {
        fill: #073243;
      }

      .cls-2 {
        fill: #2e353f;
      }

      .cls-3 {
        fill: #ab6559;
      }
    </style>
  </defs>
  <path class="cls-2" d="M91.57,7.3H7.35v14.48c5.82-3.47,11-5.97,16-7.5,5.41-1.58,11.38-2.37,17.91-2.37,18.14,0,32.4,5.86,43.26,17.56h7.05V7.3Z"/>
  <path class="cls-2" d="M91.57,41.22l-30.29,14.7c-4.09-9.65-9.62-14.47-16.61-14.47-12.09,0-18.14,7.88-18.14,23.65,0,7.92,1.94,14.14,5.82,18.73h26.48c.41-.41,1.37-1.57,2.87-3.53,1.5-1.96,3-3.74,4.48-5.32,10.71,4.24,23.75,8.27,25.39,8.85"/>
  <path class="cls-3" d="M91.57,29.48h28.9c.57-4.23,1.77-7.13,3.6-8.72,1.58-1.33,4.15-1.99,7.73-1.99,6.17,0,9.25,1.84,9.25,5.51v3.68c-4.89.61-9.77,1.22-14.62,1.84-6.69.97-13.75,2.7-18.73,4.48-6.76,2.41-10.15,3.95-16.14,7.02v42.53h83.87V7.3h-83.87v22.17M141.06,53.44c0,5.31-1.27,9.49-3.82,12.55-2.7,3.32-6.66,4.98-11.86,4.98-6.18,0-9.27-2.04-9.27-6.13,0-3.57,8.32-7.37,24.95-11.4"/>
  <path class="cls-1" d="M145.54,95.2c1.53.56,4.39.99,8.57,1.3,5.06.41,19.04.82,21.34,1.22v-6.81c-1.38-.56-10.66-1.99-13.52-2.43-3.98-.61-10.51-1.21-13.21-1.21-4.24,0-6.63,1.6-6.63,3.79,0,1.94,1.15,3.32,3.45,4.13"/>
  <path class="cls-1" d="M120.96,160.43c-7.3-3.11-15.44-8.89-24.94-17.26.15.16,8.55-6.71,25.18-20.59,5.98,4.9,10.87,8.41,14.69,10.56,5.97,3.42,14.71,6.1,20.07,6.25,12.91.37,20-3,19.48-6.64-.47-3.35-16.18-3.62-26.53-5.51-13.22-2.5-22.82-5.28-28.78-8.34-10.37-5.26-15.54-12.84-15.54-22.74,0-4.85.7-8.99,2.13-12.36h-15.16v27.29c-.09-.42,0-1.11,0-1.11-4.24-6.84-10.4-12.1-17.64-15.77-6.54-3.27-13.6-4.98-21.2-5.13-9.8-.2-13.99,1.4-20.37,4.92v-10.2H7.35v76.61h24.17c-2.04-4.08-3.06-9.72-3.06-16.91,0-16.79,5.33-25.18,15.99-25.18,6.48,0,10.92,2.73,13.32,8.19,1.58,3.63,2.38,9.29,2.38,16.99s-.92,12.99-2.75,16.91h63.56Z"/>
</svg>